<svg version="1.1" xmlns="http://www.w3.org/2000/svg" xmlns:xlink="http://www.w3.org/1999/xlink" width="30" height="30" viewBox="0 0 25 25">
<path id="Edit" d="M24.866,2.290 C24.778,2.466 24.644,2.626 24.505,2.766 C21.226,6.050 17.944,9.330 14.659,12.607 C14.544,12.721 14.401,12.820 14.253,12.884 C13.375,13.267 12.493,13.642 11.609,14.011 C11.492,14.060 11.353,14.098 11.232,14.081 C10.966,14.046 10.841,13.764 10.966,13.464 C11.359,12.524 11.762,11.588 12.170,10.654 C12.221,10.539 12.314,10.436 12.406,10.345 C15.680,7.069 18.956,3.796 22.231,0.520 C22.538,0.213 22.884,-0.000 23.334,0.001 C24.483,0.013 25.357,1.312 24.866,2.290 zM21.100,2.827 C18.552,5.375 16.022,7.940 13.445,10.456 C12.748,11.137 12.556,12.022 12.137,12.815 C12.156,12.832 12.176,12.849 12.195,12.866 C12.723,12.639 13.252,12.418 13.775,12.182 C13.922,12.115 14.067,12.022 14.180,11.908 C16.867,9.230 19.551,6.546 22.234,3.864 C22.301,3.797 22.364,3.727 22.397,3.692 C22.030,3.327 21.677,2.975 21.300,2.599 C21.249,2.657 21.180,2.747 21.100,2.827 zM23.825,1.032 C23.553,0.806 23.229,0.746 23.015,0.945 C22.661,1.275 22.342,1.642 22.022,1.980 C22.351,2.313 22.692,2.659 23.046,3.018 C23.064,3.011 23.084,3.009 23.095,2.998 C23.361,2.735 23.628,2.472 23.892,2.206 C24.293,1.804 24.269,1.399 23.825,1.032 zM17.165,3.222 C14.809,3.223 12.453,3.223 10.097,3.223 C7.087,3.223 4.077,3.222 1.067,3.222 C1.007,3.222 0.946,3.222 0.862,3.222 C0.862,10.197 0.862,17.159 0.862,24.142 C7.262,24.142 13.669,24.142 20.100,24.142 C20.105,24.076 20.114,24.001 20.114,23.927 C20.115,19.811 20.115,15.695 20.118,11.579 C20.118,11.452 20.115,11.293 20.186,11.206 C20.271,11.100 20.437,10.991 20.559,11.001 C20.680,11.010 20.808,11.151 20.899,11.262 C20.950,11.325 20.944,11.444 20.944,11.538 C20.946,15.829 20.944,20.119 20.949,24.410 C20.950,24.698 20.857,24.896 20.583,24.997 C13.724,24.997 6.864,24.997 0.005,24.997 C0.005,17.566 0.005,10.134 0.005,2.703 C0.150,2.438 0.386,2.387 0.666,2.387 C6.163,2.392 11.660,2.392 17.156,2.393 C17.517,2.393 17.718,2.534 17.724,2.789 C17.731,3.071 17.540,3.222 17.165,3.222 z" fill="#FFFFFF" />
</svg>
